<svg width="24" height="24" viewBox="0 0 24 24" fill="none" xmlns="http://www.w3.org/2000/svg">
<path d="M12 11C14.2091 11 16 9.20914 16 7C16 4.79086 14.2091 3 12 3C9.79086 3 8 4.79086 8 7C8 9.20914 9.79086 11 12 11Z" stroke="#343A3F" stroke-width="2" stroke-linecap="round" stroke-linejoin="round"/>
<path d="M16.0319 21.1421C17.4199 20.8922 18.5204 20.5115 19.0319 19.9999C19.1038 19.353 19.0319 18.3332 19.0319 18.3332C19.0319 17.4492 18.6105 16.6013 17.8604 15.9762C15.4914 14.0021 7.57247 14.0021 5.20352 15.9762C4.45337 16.6013 4.03195 17.4492 4.03195 18.3332C4.03195 18.3332 3.96007 19.353 4.03195 19.9999C4.54351 20.5115 5.64392 20.8922 7.03194 21.1421" stroke="#343A3F" stroke-width="2" stroke-linecap="round" stroke-linejoin="round"/>
</svg>
