<svg width="20" height="20" viewBox="0 0 20 20" fill="none" xmlns="http://www.w3.org/2000/svg">
<path fill-rule="evenodd" clip-rule="evenodd" d="M9.99998 3.33342C8.68791 3.33342 7.42049 3.88132 6.47917 4.87154C5.53649 5.86318 4.99998 7.21676 4.99998 8.63645C4.99998 10.7034 6.28025 12.7211 7.70255 14.3004C8.39906 15.0738 9.09809 15.7072 9.62364 16.1475C9.76282 16.2641 9.88938 16.3667 9.99998 16.4545C10.1106 16.3667 10.2371 16.2641 10.3763 16.1475C10.9019 15.7072 11.6009 15.0738 12.2974 14.3004C13.7197 12.7211 15 10.7034 15 8.63645C15 7.21676 14.4635 5.86318 13.5208 4.87154C12.5795 3.88132 11.3121 3.33342 9.99998 3.33342ZM9.99998 17.5001C9.5215 18.1824 9.5213 18.1822 9.52107 18.1821L9.51897 18.1806L9.51432 18.1773L9.49879 18.1662C9.48571 18.1569 9.46725 18.1436 9.44376 18.1265C9.39677 18.0923 9.32963 18.0427 9.2452 17.9785C9.07643 17.8503 8.83812 17.6636 8.55341 17.4251C7.98521 16.9492 7.2259 16.2616 6.46408 15.4157C4.96971 13.7564 3.33331 11.3422 3.33331 8.63645C3.33331 6.8012 4.02596 5.03316 5.27121 3.72323C6.51782 2.41186 8.21786 1.66675 9.99998 1.66675C11.7821 1.66675 13.4821 2.41186 14.7288 3.72323C15.974 5.03316 16.6666 6.8012 16.6666 8.63645C16.6666 11.3422 15.0302 13.7564 13.5359 15.4157C12.7741 16.2616 12.0148 16.9492 11.4466 17.4251C11.1618 17.6636 10.9235 17.8503 10.7548 17.9785C10.6703 18.0427 10.6032 18.0923 10.5562 18.1265C10.5327 18.1436 10.5142 18.1569 10.5012 18.1662L10.4856 18.1773L10.481 18.1806L10.4795 18.1817C10.4792 18.1818 10.4785 18.1824 9.99998 17.5001ZM9.99998 17.5001L10.4785 18.1824C10.1913 18.3838 9.80826 18.3835 9.52107 18.1821L9.99998 17.5001Z" fill="#782328"/>
<path fill-rule="evenodd" clip-rule="evenodd" d="M9.99996 6.66667C9.07948 6.66667 8.33329 7.41286 8.33329 8.33333C8.33329 9.25381 9.07948 10 9.99996 10C10.9204 10 11.6666 9.25381 11.6666 8.33333C11.6666 7.41286 10.9204 6.66667 9.99996 6.66667ZM6.66663 8.33333C6.66663 6.49238 8.15901 5 9.99996 5C11.8409 5 13.3333 6.49238 13.3333 8.33333C13.3333 10.1743 11.8409 11.6667 9.99996 11.6667C8.15901 11.6667 6.66663 10.1743 6.66663 8.33333Z" fill="#782328"/>
</svg>
