<svg width="184" height="51" viewBox="0 0 184 51" fill="none" xmlns="http://www.w3.org/2000/svg">
<path d="M0.262857 0H184V49.5578H151.866V49.099H183.474V0.458869H0.46V49.099H32.8571V49.5578H0V0H0.262857Z" fill="#3C3C3C"/>
<path d="M20.0429 11.9963H23.9857L34.3029 38.4796H30.4257L26.22 27.6634H15.3772L11.6314 38.4796H10.9743L20.0429 11.9963ZM15.5743 27.0079H25.9572L20.4372 12.8485L15.5743 27.0079Z" fill="#3C3C3C"/>
<path d="M56.3829 37.8897V38.4796H37.3257V11.9963H41.0057V37.8241L56.3829 37.8897Z" fill="#3C3C3C"/>
<path d="M62.6914 38.4796H59.0771V11.9963H62.6914V38.4796Z" fill="#3C3C3C"/>
<path d="M65.9114 25.2379C65.9114 17.2404 70.84 11.4062 79.8429 11.4062C87.0057 11.4062 90.5543 15.0772 91.0143 18.0926L90.3572 18.1582C89.5686 13.5695 83.72 11.9962 79.8429 11.9962C73.4029 11.9962 69.7886 17.1749 69.7886 25.1723C69.7886 33.6942 74.1257 38.2829 79.8429 38.2829C82.6029 38.2829 87.9257 38.2173 92.2629 33.9564L92.7229 34.3497C88.1886 38.8073 82.6686 39.0039 79.8429 39.0039C70.84 39.0695 65.9114 33.1697 65.9114 25.2379Z" fill="#3C3C3C"/>
<path d="M147.134 38.4794H143.52V11.9961H147.134V38.4794Z" fill="#3C3C3C"/>
<path d="M159.291 11.9961H163.234L173.486 38.4794H169.609L165.403 27.6632H154.56L150.814 38.4794H150.157L159.291 11.9961ZM154.823 27.0077H165.206L159.686 12.8483L154.823 27.0077Z" fill="#3C3C3C"/>
<path d="M37.3257 50.8688V47.6567H37.8514L38.9028 49.0989L39.9543 47.6567H40.48V50.8688H39.9543V48.3778L39.0343 49.6233H38.7714L37.8514 48.3778V50.8688H37.3257Z" fill="#3C3C3C"/>
<path d="M44.9485 50.8688V47.6567H47.2485V48.1156H45.4743V48.9022H46.92V49.3611H45.4743V50.41H47.3143V50.8688H44.9485Z" fill="#3C3C3C"/>
<path d="M51.5857 50.8688V47.6567H53.8857V48.1156H52.1114V48.7711H52.9657C53.36 48.7711 53.6228 48.8367 53.82 49.0333C54.0171 49.23 54.1485 49.4922 54.1485 49.7544C54.1485 50.0822 54.0171 50.3444 53.82 50.4755C53.6228 50.6722 53.2943 50.7377 52.9657 50.7377H51.5857V50.8688ZM52.1114 50.41H52.9C53.36 50.41 53.6228 50.2133 53.6228 49.82C53.6228 49.4267 53.36 49.23 52.9 49.23H52.1114V50.41Z" fill="#3C3C3C"/>
<path d="M58.4857 50.8688V47.6567H60.7857V48.1156H59.0114V48.9022H60.4571V49.3611H59.0114V50.41H60.8514V50.8688H58.4857Z" fill="#3C3C3C"/>
<path d="M64.7286 50.41C64.7943 50.41 64.86 50.41 64.9257 50.41C65.1229 50.41 65.32 50.2789 65.3857 50.0166C65.4514 49.6889 65.5171 49.3611 65.5171 48.7711V47.6567H67.6857V50.8688H67.16V48.1156H65.9772V48.8367C65.9772 49.5578 65.9114 50.0166 65.78 50.41C65.6486 50.8033 65.3857 50.9344 64.9914 50.9344C64.9257 50.9344 64.86 50.9344 64.7943 50.9344L64.7286 50.41Z" fill="#3C3C3C"/>
<path d="M72.1543 50.8688V47.6567H72.68V48.7711H73.5343C73.9286 48.7711 74.1914 48.8367 74.4543 49.0989C74.6514 49.2956 74.7829 49.5578 74.7829 49.8855C74.7829 50.2133 74.6514 50.4755 74.4543 50.6722C74.2572 50.8688 73.9286 50.9344 73.6 50.9344L72.1543 50.8688ZM72.68 50.41H73.4686C73.9286 50.41 74.1914 50.2133 74.1914 49.82C74.1914 49.4267 73.9286 49.23 73.4686 49.23H72.68V50.41Z" fill="#3C3C3C"/>
<path d="M78.9886 50.8688V47.6567H79.5143V48.9022H81.2229V47.6567H81.7486V50.8688H81.2229V49.3611H79.5143V50.8688H78.9886Z" fill="#3C3C3C"/>
<path d="M85.8885 50.8689L87.3343 47.5913H87.7943L89.24 50.8689H88.7143L88.3857 50.0823H86.7428L86.4143 50.8689H85.8885ZM86.94 49.6234H88.1228L87.5314 48.2468L86.94 49.6234Z" fill="#3C3C3C"/>
<path d="M93.0515 50.8689L94.1029 49.4268C93.6429 49.2957 93.38 48.9679 93.38 48.509C93.38 47.9846 93.7743 47.5913 94.4315 47.5913H95.8772V50.8034H95.3515V49.4268H94.6286L93.6429 50.8034L93.0515 50.8689ZM95.4172 49.099V48.1157H94.4972C94.1029 48.1157 93.9057 48.3124 93.9057 48.5746C93.9057 48.9024 94.1029 49.0335 94.4972 49.0335H95.4172V49.099Z" fill="#3C3C3C"/>
<path d="M103.04 51.0001V50.6723C102.514 50.6723 102.12 50.5412 101.857 50.279C101.594 50.0168 101.463 49.689 101.463 49.2957C101.463 48.5746 101.989 47.9191 103.04 47.9191V47.5913H103.566V47.8535C104.683 47.8535 105.143 48.5746 105.143 49.2301C105.143 49.9512 104.617 50.6067 103.566 50.6067V50.9345H103.04V51.0001ZM103.04 48.3124C102.711 48.3124 102.449 48.3779 102.251 48.5746C102.054 48.7713 101.989 48.9679 101.989 49.2301C101.989 49.4923 102.054 49.7546 102.251 49.8857C102.449 50.0823 102.711 50.1479 103.04 50.1479V48.3124ZM103.566 50.2134C103.894 50.2134 104.157 50.1479 104.354 49.9512C104.551 49.7545 104.617 49.5579 104.617 49.2957C104.617 49.0335 104.551 48.8368 104.354 48.6402C104.157 48.4435 103.894 48.3779 103.566 48.3779V50.2134Z" fill="#3C3C3C"/>
<path d="M109.02 50.8689L110.466 47.5913H110.926L112.371 50.8689H111.846L111.517 50.0823H110.006L109.677 50.8689H109.02ZM110.071 49.6234H111.254L110.663 48.2468L110.071 49.6234Z" fill="#3C3C3C"/>
<path d="M116.511 50.8688V47.6567H118.811V48.1156H117.037V48.7711H117.891C118.286 48.7711 118.549 48.8367 118.746 49.0333C118.943 49.23 119.074 49.4922 119.074 49.7544C119.074 50.0822 118.943 50.3444 118.746 50.4755C118.549 50.6722 118.22 50.7377 117.891 50.7377H116.511V50.8688ZM117.037 50.41H117.826C118.286 50.41 118.549 50.2133 118.549 49.82C118.549 49.4267 118.286 49.23 117.826 49.23H117.037V50.41Z" fill="#3C3C3C"/>
<path d="M123.411 50.8688V47.6567H124.791C125.12 47.6567 125.383 47.7223 125.58 47.919C125.777 48.1156 125.843 48.3123 125.843 48.5745C125.843 48.8367 125.777 49.0989 125.58 49.2956C125.383 49.4922 125.12 49.5578 124.791 49.5578H123.937V50.8688H123.411ZM123.871 49.0989H124.726C125.12 49.0989 125.317 48.9022 125.317 48.64C125.317 48.3123 125.12 48.1812 124.726 48.1812H123.871V49.0989Z" fill="#3C3C3C"/>
<path d="M130.114 50.8688V47.6567H130.64V50.0166L132.414 47.6567H132.874V50.8688H132.349V48.5089L130.574 50.8688H130.114Z" fill="#3C3C3C"/>
<path d="M137.343 50.8688V47.6567H137.869V48.9678L139.183 47.6567H139.84L138.329 49.1645L140.103 50.9344H139.38L137.869 49.3611V50.9344L137.343 50.8688Z" fill="#3C3C3C"/>
<path d="M143.849 50.8689L145.294 47.5913H145.754L147.2 50.8689H146.674L146.346 50.0823H144.834L144.506 50.8689H143.849ZM144.9 49.6234H146.083L145.491 48.2468L144.9 49.6234Z" fill="#3C3C3C"/>
<path d="M109.546 28.3844C113.489 28.1222 117.694 28.6466 121.703 30.2854C126.829 32.4486 132.874 34.5463 137.869 32.7764C137.474 28.6466 134.057 25.1723 129.851 24.779C127.289 24.5823 124.66 25.8934 121.309 25.7623C119.337 25.6967 118.811 23.2713 120.849 22.5502C118.286 22.9435 115.131 22.0913 112.766 23.2713C111.32 23.9923 109.743 26.2867 109.546 28.3844ZM111.977 4.9165C106.654 10.7507 103.5 18.6826 105.143 27.9255C105.077 21.0425 110.531 19.9936 115.394 20.1247C118.154 20.1903 120.914 20.6491 122.754 20.2558C124.397 19.8625 125.777 18.7481 126.434 17.4371C119.337 17.6993 121.177 11.5373 115.263 11.144C114.146 12.9139 113.489 13.5695 111.451 14.6183C114.211 11.4718 113.16 8.45635 111.977 4.9165Z" fill="#782328"/>
<path d="M92 42.2815C95.22 34.4808 106.589 26.5489 119.469 30.6787C124.529 32.3175 132.546 38.4139 137.671 35.6607C136.686 39.5283 133.466 42.0193 129.851 42.4782C120.783 43.7893 106.391 31.3342 92 42.2815Z" fill="#3C3C3C"/>
</svg>
