<svg width="95" height="42" viewBox="0 0 95 42" fill="none" xmlns="http://www.w3.org/2000/svg">
<path d="M0 0H95V42H10C4.47715 42 0 37.5228 0 32V0Z" fill="#79A531"/>
<path d="M48.12 26V17.856L54.488 26H55.976V14.8H54.248V22.912L47.928 14.8H46.392V26H48.12ZM66.943 26V24.384H60.527V20.832H65.583V19.216H60.527V16.416H66.735V14.8H58.767V26H66.943ZM73.481 26.064L76.153 17.728L78.809 26.064H80.361L84.185 14.8H82.249L79.577 23.216L76.857 14.784H75.465L72.745 23.216L70.073 14.8H68.105L71.913 26.064H73.481Z" fill="white"/>
<path d="M16.82 30.02L18 23.14L13 18.27L19.91 17.26L23 11L26.09 17.26L33 18.27L28 23.14L29.18 30.02L23 26.77L19.91 28.395" stroke="white" stroke-width="2" stroke-linecap="round" stroke-linejoin="round"/>
</svg>
