<svg width="93" height="42" viewBox="0 0 93 42" fill="none" xmlns="http://www.w3.org/2000/svg">
<path d="M0 0H93V42H10C4.47715 42 0 37.5228 0 32V0Z" fill="#C12B34"/>
<path d="M13 17.5V23.2695L20.617 30.8796C20.7817 31.0445 20.9773 31.1754 21.1926 31.2646C21.4079 31.3539 21.6387 31.3999 21.8717 31.3999C22.1048 31.3999 22.3356 31.3539 22.5509 31.2646C22.7661 31.1754 22.9617 31.0445 23.1264 30.8796L29.4843 24.5201C29.8146 24.1877 30 23.7381 30 23.2695C30 22.8008 29.8146 22.3512 29.4843 22.0189L21.8673 14.3999H18M17.01 18.3999C17.01 18.3999 17.0028 18.4026 17 18.3999C14 15.3999 14 9.39984 19 11.3999" stroke="white" stroke-width="2" stroke-linecap="round" stroke-linejoin="round"/>
<path d="M44.928 26.208C46.16 26.208 47.184 25.904 48 25.312C48.816 24.72 49.232 23.904 49.232 22.864C49.168 21.6 48.64 20.8 47.648 20.272C46.944 19.888 46.448 19.696 45.6 19.44L44.32 19.072C44.048 18.96 43.536 18.8 43.328 18.672C42.944 18.4 42.672 18.144 42.672 17.664C42.672 16.832 43.424 16.24 44.96 16.24C46.192 16.24 47.376 16.592 48.512 17.28V15.52C47.472 14.896 46.272 14.592 44.928 14.592C42.416 14.592 40.864 15.792 40.864 17.648C40.864 18.672 41.2 19.392 42.016 19.904C42.432 20.144 42.8 20.336 43.136 20.464C43.472 20.592 43.968 20.752 44.592 20.928L44.816 20.992C45.536 21.2 45.84 21.28 46.352 21.52C46.608 21.632 46.8 21.744 46.928 21.856C47.2 22.096 47.424 22.448 47.424 22.896C47.424 23.936 46.304 24.56 44.832 24.56C44.064 24.56 43.296 24.416 42.528 24.128C41.776 23.84 41.168 23.504 40.72 23.104V25.008C41.824 25.808 43.216 26.208 44.928 26.208ZM52.3021 26L53.5021 23.216H58.8141L60.0301 26H61.9181L57.0221 14.736H55.3261L50.4301 26H52.3021ZM56.1581 16.96L58.2061 21.664H54.1101L56.1581 16.96ZM71.3856 26V24.384H65.4336V14.8H63.6576V26H71.3856ZM81.4274 26V24.384H75.0114V20.832H80.0674V19.216H75.0114V16.416H81.2194V14.8H73.2514V26H81.4274Z" fill="white"/>
</svg>
