<svg width="63" height="42" viewBox="0 0 63 42" fill="none" xmlns="http://www.w3.org/2000/svg">
<path d="M0 0H63V42H10C4.47715 42 0 37.5228 0 32V0Z" fill="#D88E00"/>
<path d="M24 17.5V23.2695L31.617 30.8796C31.7817 31.0445 31.9773 31.1754 32.1926 31.2646C32.4079 31.3539 32.6387 31.3999 32.8717 31.3999C33.1048 31.3999 33.3356 31.3539 33.5509 31.2646C33.7661 31.1754 33.9617 31.0445 34.1264 30.8796L40.4843 24.5201C40.8146 24.1877 41 23.7381 41 23.2695C41 22.8008 40.8146 22.3512 40.4843 22.0189L32.8673 14.3999H29M28.01 18.3999C28.01 18.3999 28.0028 18.4026 28 18.3999C25 15.3999 25 9.39984 30 11.3999" stroke="white" stroke-width="2" stroke-linecap="round" stroke-linejoin="round"/>
</svg>
