<svg width="22" height="18" viewBox="0 0 22 18" fill="none" xmlns="http://www.w3.org/2000/svg">
<path d="M10.9997 3.59057L9.98554 2.56281C8.99842 1.56249 7.6596 1.00052 6.26361 1.00052C4.86761 1.00052 3.52879 1.56249 2.54168 2.56281C1.55456 3.56313 1 4.91985 1 6.33451C1 10.2421 6.99949 17 10.9997 17C15 17 20.9997 10.2416 20.9997 6.33399C20.9997 4.91933 20.4452 3.56261 19.4581 2.56229C18.471 1.56197 17.1321 1 15.7361 1C14.7631 1 13.8178 1.27305 13 1.77728" stroke="#782328" stroke-width="2" stroke-linecap="round" stroke-linejoin="round"/>
<path d="M15.0235 2.55142C14.9336 2.61308 14.8419 2.65221 14.7338 2.65221C14.6475 2.65221 14.6067 2.69559 14.5252 2.7278C14.4131 2.77213 14.3363 2.82646 14.2677 2.92937" stroke="black" stroke-width="3" stroke-linecap="round"/>
<path d="M15.6786 1.51838C15.5397 1.64939 15.3812 1.72826 15.2055 1.79554C15.0516 1.85448 14.8295 1.90037 14.7016 2.00271C14.636 2.05518 14.5421 2.08582 14.4692 2.12869C14.427 2.15355 14.3179 2.26984 14.2929 2.27427C14.1312 2.30279 13.9668 2.53872 13.8589 2.64661C13.7446 2.76089 13.6083 2.85804 13.4866 2.97976C13.3865 3.07984 13.2724 3.1659 13.1716 3.26672C13.0759 3.36245 12.9276 3.42958 12.8455 3.53408C12.6918 3.7296 12.505 3.90418 12.315 4.052C12.23 4.11808 12.1713 4.22272 12.0742 4.27736C11.8764 4.38862 11.6917 4.55611 11.5087 4.6917C11.2961 4.84919 11.0585 4.97976 10.8284 5.10884C10.4839 5.30206 10.1492 5.53946 9.83313 5.77654C9.57722 5.96847 9.32165 6.13715 9.05204 6.30566C8.91905 6.38878 8.75863 6.45399 8.64891 6.55762C8.63047 6.57503 8.55513 6.65688 8.52852 6.64721C8.46349 6.62356 8.44822 6.24508 8.44734 6.19088C8.44142 5.82723 8.43004 5.4651 8.42214 5.10184C8.41854 4.93647 8.39694 4.77126 8.39694 4.60352C8.39694 4.51214 8.36201 4.49579 8.30176 4.43554C8.21369 4.34747 8.15198 4.13412 8.0204 4.11219C7.86371 4.08607 7.73323 3.92271 7.57807 3.88822C7.41002 3.85088 7.24488 3.73633 7.08114 3.67966C6.89086 3.61379 6.72059 3.5215 6.52683 3.46409C6.42418 3.43367 6.305 3.47256 6.19928 3.45289C6.025 3.42047 5.85305 3.4081 5.67575 3.4081C5.57292 3.4081 5.44922 3.38468 5.3608 3.44589C5.26932 3.50922 5.14684 3.49658 5.29921 3.45849C5.50227 3.40772 5.65338 3.24621 5.83813 3.15753C5.9763 3.09121 6.09258 3.05535 6.24407 3.05535C6.36593 3.05535 6.45529 3.13689 6.56882 3.15753C6.66751 3.17548 6.75402 3.18133 6.85998 3.18133C6.87866 3.18133 7.03473 3.19647 6.99575 3.20513C6.87993 3.23087 6.72932 3.19587 6.62061 3.16593C6.24954 3.06375 5.89871 3.05535 5.51618 3.05535C5.31674 3.05535 5.11341 3.18392 4.94506 3.27652C4.84379 3.33221 4.74623 3.38201 4.64831 3.44729C4.55162 3.51175 4.48562 3.61558 4.40335 3.69785C4.22684 3.87436 4.12993 4.10517 4.00161 4.31516C3.878 4.51742 3.74269 4.70422 3.63486 4.91987C3.5814 5.02679 3.54493 5.13848 3.48368 5.24182C3.41617 5.35576 3.41512 5.59304 3.3885 5.72615C3.34509 5.94318 3.26907 6.20109 3.18693 6.40644C3.14079 6.52178 3.17638 6.72432 3.16173 6.84878C3.13933 7.03924 3.15398 7.22615 3.20653 7.40869C3.3337 7.85046 3.41997 8.29076 3.52008 8.73849C3.6883 9.49082 4.05131 10.2865 4.52093 10.897C4.68063 11.1046 4.79376 11.341 4.96046 11.5451C5.17621 11.8091 5.40838 12.1108 5.67575 12.3248C5.97817 12.5667 6.22489 12.7958 6.58002 12.9687C6.99049 13.1685 7.3129 13.5106 7.73344 13.6895C8.11569 13.8522 8.51344 14.0303 8.90647 14.1613C9.45795 14.3451 9.95833 14.6204 10.5442 14.6512C10.9035 14.6701 11.248 14.726 11.5997 14.8024C11.677 14.8192 11.7448 14.8472 11.8236 14.8472C12.0298 14.8472 12.2168 14.714 12.3807 14.6064C12.6437 14.4338 12.9512 14.2786 13.243 14.1669C13.4133 14.1017 13.5618 13.997 13.7161 13.9023C13.9121 13.782 14.1138 13.6845 14.3027 13.551C14.4275 13.4627 14.5306 13.3457 14.6582 13.2626C14.8347 13.1477 15.0069 13.0412 15.1607 12.8945C15.3961 12.67 15.5651 12.4034 15.7682 12.1512C16.0115 11.8492 16.2175 11.5574 16.3589 11.1937C16.5019 10.826 16.721 10.5055 16.9035 10.1565C17.1779 9.63148 17.5616 9.17774 17.9267 8.72449C18.0066 8.62529 18.0852 8.53843 18.1423 8.42214C18.1916 8.32164 18.2116 8.21495 18.2739 8.11979C18.4164 7.90207 18.4782 7.68487 18.5202 7.42829C18.5387 7.31528 18.5228 7.20535 18.551 7.09234C18.5836 6.962 18.6253 6.82114 18.6462 6.6892C18.6838 6.45202 18.6518 6.18708 18.6518 5.94731C18.6518 5.49378 18.6253 5.05836 18.5566 4.61191C18.519 4.3674 18.4558 4.12001 18.2879 3.93162C17.9851 3.59196 17.4211 3.44115 17.007 3.29751C16.5751 3.14766 16.1288 3.36866 15.8928 3.74824C15.7998 3.89781 15.7054 4.1551 15.7318 4.34036C15.7759 4.64853 16.2483 4.73284 16.4653 4.82888C16.7431 4.95183 16.7369 4.99528 16.7369 5.28801C16.7369 5.57589 16.7012 5.81114 16.5983 6.08029C16.4802 6.3892 16.3605 6.71684 16.2064 7.00975C16.0285 7.34777 15.8152 7.58391 15.5079 7.80343C15.3794 7.89522 15.2809 8.07295 15.1999 8.20657C15.0487 8.45592 14.8873 8.69929 14.7408 8.95126C14.4508 9.44984 14.105 9.94744 13.7497 10.4014C13.5821 10.6156 13.3992 10.8139 13.2262 11.0229C13.0045 11.2908 12.8284 11.5747 12.5795 11.8236C12.377 12.0262 12.1282 12.3224 11.8726 12.4661C11.758 12.5306 11.6199 12.5425 11.4933 12.5683C11.1957 12.6289 10.918 12.6974 10.6114 12.7041C10.3007 12.7109 9.9548 12.7504 9.66655 12.6159C9.37005 12.4775 9.00066 12.4184 8.73989 12.2156C8.59021 12.0992 8.45487 11.9665 8.33255 11.8152C8.10047 11.5282 7.97843 11.1767 7.77824 10.869C7.62685 10.6363 7.4912 10.3917 7.3499 10.1523C7.10271 9.73342 6.84937 9.3133 6.58282 8.90647C6.13627 8.2249 5.85072 7.43816 5.95431 6.60941C5.98025 6.40195 6.22012 6.10409 6.44284 6.10409C7.02515 6.10409 7.60746 6.10409 8.18977 6.10409C8.53312 6.10409 8.87669 6.1077 9.22002 6.10409C9.48216 6.10133 9.73738 6.01925 10.0011 6.0089C10.5275 5.98826 11.0539 6.01522 11.5801 5.97811C11.7921 5.96315 12.0426 5.96878 12.2408 5.87732C12.4685 5.77222 12.7448 5.74874 12.9883 5.70095C13.3647 5.62706 13.7394 5.53476 14.1193 5.47978C14.2182 5.46547 14.2956 5.42379 14.3964 5.42379C14.4711 5.42379 14.5457 5.42379 14.6204 5.42379C14.6977 5.42379 14.6708 5.52121 14.6708 5.57777C14.6708 5.8433 14.5913 6.0413 14.4048 6.24267C14.304 6.35161 14.1882 6.44159 14.0927 6.55622C14.0209 6.64241 13.9881 6.74019 13.8995 6.81238C13.7839 6.9066 13.7172 7.03862 13.614 7.14553C13.5148 7.24818 13.3832 7.32195 13.2598 7.3905C13.0785 7.49121 12.8465 7.5783 12.7419 7.76844C12.6416 7.95083 12.5775 8.15832 12.4675 8.33115C12.337 8.53622 12.2089 8.73093 12.0644 8.92746C11.8737 9.18685 11.7715 9.49946 11.5717 9.75194C11.335 10.0509 11.0256 10.3174 10.6282 10.3119C10.3247 10.3076 9.72383 10.2131 9.62036 9.85832C9.56069 9.65375 9.52635 9.27937 9.60776 9.07584C9.69305 8.86262 9.87699 8.72823 10.0333 8.57192C10.2292 8.37604 10.4516 8.21369 10.6898 8.09459" stroke="#782328" stroke-width="3" stroke-linecap="round"/>
<path d="M8.32135 8.59851C8.17643 8.59851 8.1507 8.57925 8.06939 8.45573C7.97126 8.30665 7.88569 8.13914 7.83143 7.96861C7.79979 7.86917 7.81743 7.74469 7.81743 7.64106" stroke="#782328" stroke-width="3" stroke-linecap="round"/>
<path d="M8.49773 2.85378C8.81799 2.9979 9.05555 3.17766 9.3292 3.3829" stroke="#782328" stroke-width="3" stroke-linecap="round"/>
<path d="M13.1295 2.84213C13.1233 3.10188 12.8373 3.23433 12.6801 3.3916C12.6491 3.42255 12.6048 3.42781 12.5732 3.45944C12.556 3.47666 12.5456 3.49847 12.5266 3.51371C12.4943 3.53954 12.4742 3.60327 12.4579 3.63581" stroke="#782328" stroke-width="3" stroke-linecap="round"/>
<path d="M13.3771 2.22228C13.426 2.2848 13.4786 2.32371 13.5321 2.37721" stroke="#782328" stroke-width="3" stroke-linecap="round"/>
<path d="M13.1189 2.30835C13.1636 2.31817 13.251 2.3315 13.2739 2.37721" stroke="#782328" stroke-width="3" stroke-linecap="round"/>
<path d="M13.0673 2.49771C13.1409 2.51427 13.1815 2.53214 13.2566 2.53214" stroke="#782328" stroke-width="3" stroke-linecap="round"/>
<path d="M12.8951 2.66985C12.9296 2.67658 12.9638 2.68212 12.9984 2.68707" stroke="#782328" stroke-width="3" stroke-linecap="round"/>
</svg>
