<svg width="129" height="130" viewBox="0 0 129 130" fill="none" xmlns="http://www.w3.org/2000/svg">
<path d="M120.377 32.847C128.115 46.2671 130.765 62.0237 127.841 77.2363C124.918 92.449 116.617 106.101 104.457 115.698C92.2962 125.294 77.0881 130.193 61.6127 129.5C46.1372 128.807 31.4283 122.567 20.1748 111.921C8.92131 101.275 1.87505 86.9352 0.324179 71.5221C-1.2267 56.1089 2.82141 40.6524 11.7284 27.9783C20.6355 15.3041 33.8064 6.25889 48.8335 2.49624C63.8606 -1.26641 79.7399 0.50484 93.5685 7.48619L86.8242 18.5C75.7613 12.9149 63.9885 11.9998 51.9668 15.0099C39.9452 18.02 29.4084 25.2562 22.2828 35.3955C15.1572 45.5349 11.9187 57.9001 13.1594 70.2306C14.4001 82.5611 20.0371 94.0332 29.0399 102.55C38.0426 111.066 49.8098 116.058 62.1902 116.613C74.5705 117.168 86.737 113.248 96.4655 105.571C106.194 97.8941 112.834 86.9721 115.173 74.802C117.512 62.6319 118.19 54.3007 112 43.5647L120.377 32.847Z" fill="#782328"/>
<path d="M31.8242 58.5L61.8242 94L117.324 6" stroke="#782328" stroke-width="12"/>
</svg>
